# xmcd CD database file
#
# Track frame offsets:
#	150
#	11765
#	22757
#	33695
#	46060
#	59345
#	69247
#	81957
#	94530
#	108955
#	121225
#	136295
#	147832
#	160230
#	173950
#	186112
#
# Disc length: 2677 seconds
#
# Revision: 2
# Processed by: cddbd v1.4b42PL0 Copyright (c) Steve Scherf et al.
# Submitted via: CDex 1.40Beta6
#
DISCID=cb0a7310
DTITLE=Otis Redding - The Very Best of Otis Redding
DYEAR=1900
DGENRE=Soul
TTITLE0=These Arms of Mine
TTITLE1=Pain In My Heart
TTITLE2=That's How Strong My Love Is
TTITLE3=Mr. Pitiful
TTITLE4=I've Been Loving You Too Long
TTITLE5=Respect
TTITLE6=I Can't Turn You Loose
TTITLE7=Satisfaction
TTITLE8=My Lover's Prayer
TTITLE9=Fa-Fa-Fa-Fa-Fa (Sad Song)
TTITLE10=Try a Little Tenderness
TTITLE11=Shake
TTITLE12=The Happy Song (Dum-Dum)
TTITLE13=Tramp
TTITLE14=(Sittin' On) The Dock of the Bay
TTITLE15=I've Got Dreams to Remember
EXTD=
EXTT0=
EXTT1=
EXTT2=
EXTT3=
EXTT4=
EXTT5=
EXTT6=
EXTT7=
EXTT8=
EXTT9=
EXTT10=
EXTT11=
EXTT12=
EXTT13=
EXTT14=
EXTT15=
PLAYORDER=
